<svg xmlns="http://www.w3.org/2000/svg" xmlns:xlink="http://www.w3.org/1999/xlink" version="1.1" x="0px" y="0px"
  viewBox="0 0 100 100" enable-background="new 0 0 100 100" xml:space="preserve">
  <style>
    path {
      fill: var(--color-surface-700, black);
    }

    @media (prefers-color-scheme: light) {
      path {
        fill: var(--color-surface-700, white);
      }
    }
  </style>
  <path fill-rule="evenodd" clip-rule="evenodd"
    d="M27.751,67.15l-0.001-4.54l-16.454,0.033c-3.027,0.017-5.475-2.431-5.478-5.47  V21.941c0.003-3.014,2.451-5.462,5.453-5.462c1.313,0,2.521,0.469,3.441,1.225l15.019,15.069c1.434,1.484,2.331,3.479,2.318,5.568  l-0.033,20.008l4.595,0.026L36.61,42.428c0.011-2.975,2.459-5.423,5.51-5.43l16.99,0.028v-4.742l-19.718,0.03  c-2.173,0-4.168-0.897-5.582-2.264l-15.39-15.078c-1.075-0.938-1.807-2.414-1.807-4.055c0-3.002,2.448-5.45,5.526-5.415h35.67  c3.099-0.035,5.548,2.413,5.544,5.212l0.024,17.276l4.386,0.056l-0.01-11.806c-0.002-3.042,2.519-5.49,5.442-5.49  c1.37,0,2.638,0.538,3.672,1.435l10.798,10.549c0.974,0.952,1.913,2.361,1.913,4.096c0,3.002-2.448,5.457-5.33,5.467L72.085,32.34  v4.658l16.678-0.037c2.984-0.007,5.433,2.419,5.418,5.451L94.17,78.11c-0.001,3.088-2.445,5.537-5.447,5.537  c-1.595,0-2.99-0.732-3.995-1.735l-14.585-14.56c-1.447-1.444-2.376-3.411-2.377-5.455l-0.004-20.661l-4.414,0.084l0.016,15.931  c0.015,2.96-2.433,5.4-5.411,5.392l-17.076-0.047l0.004,4.596l19.44-0.016c2.225-0.002,4.206,0.933,5.57,2.301l15.985,16.035  c0.868,0.87,1.242,2.163,1.242,3.476c0,3.002-2.448,5.45-5.546,5.471l-35.508,0.041c-3.102,0.02-5.55-2.428-5.507-5.539  l0.068-17.508l-4.598,0.029l0.023,11.997c0.013,3.031-2.435,5.479-5.437,5.479c-1.407,0-2.692-0.538-3.642-1.401l-11.506-11.45  c-0.76-0.919-1.215-2.126-1.187-3.44c0.063-3.002,2.448-5.45,5.331-5.482l12.135-0.032 M27.722,38.6  c-0.029-1.116-0.492-2.146-1.173-2.829L12.096,21.133c-0.217-0.23-0.506-0.36-0.824-0.36c-0.637,0-1.156,0.519-1.163,1.258v35.089  c0.008,0.726,0.527,1.245,1.213,1.233l16.429-0.032L27.722,38.6L27.722,38.6z M57.901,58.354l-16.997-0.009L40.9,42.47  c0.016-0.652,0.535-1.171,1.199-1.183l16.983,0.033l-0.007,15.87C59.086,57.847,58.566,58.354,57.901,58.354L57.901,58.354z   M78.443,88.126L63.137,72.745c-0.709-0.712-1.703-1.255-2.816-1.257l-19.44-0.034l-0.035,17.565  c-0.039,0.688,0.481,1.207,1.101,1.192l35.763-0.041c0.594-0.025,1.113-0.544,1.113-1.181C78.823,88.67,78.695,88.379,78.443,88.126  L78.443,88.126z M36.584,62.61l-0.005,4.515l-4.553,0.053l0.017-4.515L36.584,62.61L36.584,62.61z M27.76,83.419l0.01-11.91  l-12.062-0.013c-0.617,0.014-1.136,0.533-1.136,1.17c0,0.318,0.13,0.607,0.33,0.829L25.599,84.12  c0.263,0.34,0.615,0.543,1.013,0.543C27.249,84.662,27.768,84.143,27.76,83.419L27.76,83.419z M59.063,10.761l0.019,17.284  l-19.526-0.021c-1.164-0.004-2.194-0.467-2.942-1.164L21.308,11.77c-0.199-0.104-0.402-0.456-0.402-0.854  c0-0.637,0.519-1.156,1.158-1.125h35.88C58.542,9.76,59.062,10.279,59.063,10.761L59.063,10.761z M67.763,36.998l0.028-4.63  l-4.414-0.056v4.658L67.763,36.998L67.763,36.998z M84.931,25.999L74.106,15.276c-0.162-0.252-0.514-0.455-0.912-0.455  c-0.637,0-1.156,0.519-1.152,1.203l0.043,12.021l12.037-0.038c0.642-0.022,1.161-0.541,1.161-1.178  C85.284,26.511,85.154,26.222,84.931,25.999L84.931,25.999z M89.901,42.381c0-0.637-0.519-1.156-1.247-1.131l-16.597,0.014  l-0.004,20.39c0,0.834,0.51,1.821,1.194,2.514l14.571,14.741c0.201,0.203,0.507,0.443,0.904,0.443c0.637,0,1.156-0.519,1.157-1.168  l0.001-35.906" />
</svg>